<?xml version="1.0" encoding="UTF-8" standalone="no"?>
<svg
   xmlns:dc="http://purl.org/dc/elements/1.1/"
   xmlns:cc="http://creativecommons.org/ns#"
   xmlns:rdf="http://www.w3.org/1999/02/22-rdf-syntax-ns#"
   xmlns:svg="http://www.w3.org/2000/svg"
   xmlns="http://www.w3.org/2000/svg"
   xmlns:sodipodi="http://sodipodi.sourceforge.net/DTD/sodipodi-0.dtd"
   xmlns:inkscape="http://www.inkscape.org/namespaces/inkscape"
   enable-background="new 0 0 24 24"
   viewBox="0 0 24 24"
   fill="black"
   width="18px"
   height="18px"
   version="1.1"
   id="svg8"
   sodipodi:docname="android-black-18dp.svg"
   inkscape:export-filename="C:\Users\Fien\OneDrive\Documenten\TU Delft\Design Synthesis Exercise\Personal Workspace\Week 10 - Symposium\Icons Colored\android.png"
   inkscape:export-xdpi="10000"
   inkscape:export-ydpi="10000"
   inkscape:version="1.0.1 (3bc2e813f5, 2020-09-07)">
  <metadata
     id="metadata14">
    <rdf:RDF>
      <cc:Work
         rdf:about="">
        <dc:format>image/svg+xml</dc:format>
        <dc:type
           rdf:resource="http://purl.org/dc/dcmitype/StillImage" />
      </cc:Work>
    </rdf:RDF>
  </metadata>
  <defs
     id="defs12" />
  <sodipodi:namedview
     pagecolor="#ffffff"
     bordercolor="#666666"
     borderopacity="1"
     objecttolerance="10"
     gridtolerance="10"
     guidetolerance="10"
     inkscape:pageopacity="0"
     inkscape:pageshadow="2"
     inkscape:window-width="3840"
     inkscape:window-height="2081"
     id="namedview10"
     showgrid="false"
     inkscape:zoom="103.55642"
     inkscape:cx="9"
     inkscape:cy="9"
     inkscape:window-x="1341"
     inkscape:window-y="-9"
     inkscape:window-maximized="1"
     inkscape:current-layer="svg8" />
  <g
     id="g6">
    <rect
       fill="none"
       height="24"
       width="24"
       id="rect2" />
    <path
       d="M17.6,9.48l1.84-3.18c0.16-0.31,0.04-0.69-0.26-0.85c-0.29-0.15-0.65-0.06-0.83,0.22l-1.88,3.24 c-2.86-1.21-6.08-1.21-8.94,0L5.65,5.67c-0.19-0.29-0.58-0.38-0.87-0.2C4.5,5.65,4.41,6.01,4.56,6.3L6.4,9.48 C3.3,11.25,1.28,14.44,1,18h22C22.72,14.44,20.7,11.25,17.6,9.48z M7,15.25c-0.69,0-1.25-0.56-1.25-1.25 c0-0.69,0.56-1.25,1.25-1.25S8.25,13.31,8.25,14C8.25,14.69,7.69,15.25,7,15.25z M17,15.25c-0.69,0-1.25-0.56-1.25-1.25 c0-0.69,0.56-1.25,1.25-1.25s1.25,0.56,1.25,1.25C18.25,14.69,17.69,15.25,17,15.25z"
       id="path4" />
  </g>
</svg>
