<svg xmlns="http://www.w3.org/2000/svg" xmlns:xlink="http://www.w3.org/1999/xlink" xmlns:lucid="lucid" width="820" height="110"><g transform="translate(-240 -305)" lucid:page-tab-id="0_0"><path d="M380 331c0-3.3 2.7-6 6-6h88c3.3 0 6 2.7 6 6v58c0 3.3-2.7 6-6 6h-88c-3.3 0-6-2.7-6-6z" stroke="#5e5e5e" stroke-width="2" fill="#00a390" fill-opacity=".5"/><use xlink:href="#a" transform="matrix(1,0,0,1,392,337) translate(5.981481481481502 14.222222222222213)"/><use xlink:href="#b" transform="matrix(1,0,0,1,392,337) translate(10.895061728395081 35.55555555555553)"/><path d="M520 331c0-3.3 2.7-6 6-6h88c3.3 0 6 2.7 6 6v58c0 3.3-2.7 6-6 6h-88c-3.3 0-6-2.7-6-6z" stroke="#5e5e5e" stroke-width="2" fill="#00a390" fill-opacity=".5"/><use xlink:href="#c" transform="matrix(1,0,0,1,532,337) translate(-3.9197530864197105 15.888888888888895)"/><use xlink:href="#d" transform="matrix(1,0,0,1,532,337) translate(3.9814814814815023 37.222222222222214)"/><path d="M660 331c0-3.3 2.7-6 6-6h88c3.3 0 6 2.7 6 6v58c0 3.3-2.7 6-6 6h-88c-3.3 0-6-2.7-6-6z" stroke="#5e5e5e" stroke-width="2" fill="#00a390" fill-opacity=".5"/><use xlink:href="#e" transform="matrix(1,0,0,1,672,337) translate(9.901234567901252 25.722222222222214)"/><path d="M800 331c0-3.3 2.7-6 6-6h88c3.3 0 6 2.7 6 6v58c0 3.3-2.7 6-6 6h-88c-3.3 0-6-2.7-6-6z" stroke="#5e5e5e" stroke-width="2" fill="#00a390" fill-opacity=".5"/><use xlink:href="#f" transform="matrix(1,0,0,1,812,337) translate(-8.790123456790077 26.555555555555554)"/><path d="M482 360h18.5" stroke="#5e5e5e" stroke-width="2" fill="none"/><path d="M482.03 361H481v-2h1.03z" fill="#5e5e5e"/><path d="M515.76 360l-14.26 4.64v-9.28z" stroke="#5e5e5e" stroke-width="2" fill="#5e5e5e"/><path d="M622 360h18.5" stroke="#5e5e5e" stroke-width="2" fill="none"/><path d="M622.03 361H621v-2h1.03z" fill="#5e5e5e"/><path d="M655.76 360l-14.26 4.64v-9.28z" stroke="#5e5e5e" stroke-width="2" fill="#5e5e5e"/><path d="M762 360h18.5" stroke="#5e5e5e" stroke-width="2" fill="none"/><path d="M762.03 361H761v-2h1.03z" fill="#5e5e5e"/><path d="M795.76 360l-14.26 4.64v-9.28z" stroke="#5e5e5e" stroke-width="2" fill="#5e5e5e"/><path d="M295.2 333.6c2.65-2 6.95-2 9.6 0l30.4 22.8c2.65 2 2.65 5.2 0 7.2l-30.4 22.8c-2.65 2-6.95 2-9.6 0l-30.4-22.8c-2.65-2-2.65-5.2 0-7.2z" stroke="#5e5e5e" stroke-width="2" fill="#f1be3e" fill-opacity=".5"/><use xlink:href="#g" transform="matrix(1,0,0,1,265,335) translate(17.276604938271618 29.847222222222214)"/><path d="M339.1 360h21.4" stroke="#5e5e5e" stroke-width="2" fill="none"/><path d="M339.13 361H338l.2-.45-.27-1.55h1.2z" fill="#5e5e5e"/><path d="M375.76 360l-14.26 4.64v-9.28z" stroke="#5e5e5e" stroke-width="2" fill="#5e5e5e"/><path d="M984.86 333.1c2.84-1.72 7.44-1.72 10.28 0l39.72 23.8c2.84 1.72 2.84 4.48 0 6.2l-39.72 23.8c-2.84 1.72-7.44 1.72-10.28 0l-39.72-23.8c-2.84-1.72-2.84-4.48 0-6.2z" stroke="#5e5e5e" stroke-width="2" fill="#f1be3e" fill-opacity=".5"/><use xlink:href="#h" transform="matrix(1,0,0,1,945,335) translate(15.424753086419779 29.722222222222214)"/><path d="M902 360h21.73" stroke="#5e5e5e" stroke-width="2" fill="none"/><path d="M902.03 361H901v-2h1.03z" fill="#5e5e5e"/><path d="M939 360l-14.27 4.64v-9.28z" stroke="#5e5e5e" stroke-width="2" fill="#5e5e5e"/><defs><path fill="#333" d="M30-248c118-7 216 8 213 122C240-48 200 0 122 0H30v-248zM63-27c89 8 146-16 146-99s-60-101-146-95v194" id="i"/><path fill="#333" d="M100-194c63 0 86 42 84 106H49c0 40 14 67 53 68 26 1 43-12 49-29l28 8c-11 28-37 45-77 45C44 4 14-33 15-96c1-61 26-98 85-98zm52 81c6-60-76-77-97-28-3 7-6 17-6 28h103" id="j"/><path fill="#333" d="M59-47c-2 24 18 29 38 22v24C64 9 27 4 27-40v-127H5v-23h24l9-43h21v43h35v23H59v120" id="k"/><path fill="#333" d="M141-36C126-15 110 5 73 4 37 3 15-17 15-53c-1-64 63-63 125-63 3-35-9-54-41-54-24 1-41 7-42 31l-33-3c5-37 33-52 76-52 45 0 72 20 72 64v82c-1 20 7 32 28 27v20c-31 9-61-2-59-35zM48-53c0 20 12 33 32 33 41-3 63-29 60-74-43 2-92-5-92 41" id="l"/><path fill="#333" d="M24-231v-30h32v30H24zM24 0v-190h32V0H24" id="m"/><path fill="#333" d="M24 0v-261h32V0H24" id="n"/><path fill="#333" d="M85-194c31 0 48 13 60 33l-1-100h32l1 261h-30c-2-10 0-23-3-31C134-8 116 4 85 4 32 4 16-35 15-94c0-66 23-100 70-100zm9 24c-40 0-46 34-46 75 0 40 6 74 45 74 42 0 51-32 51-76 0-42-9-74-50-73" id="o"/><g id="a"><use transform="matrix(0.04938271604938268,0,0,0.04938271604938268,0,0)" xlink:href="#i"/><use transform="matrix(0.04938271604938268,0,0,0.04938271604938268,12.790123456790115,0)" xlink:href="#j"/><use transform="matrix(0.04938271604938268,0,0,0.04938271604938268,22.66666666666665,0)" xlink:href="#k"/><use transform="matrix(0.04938271604938268,0,0,0.04938271604938268,27.60493827160492,0)" xlink:href="#l"/><use transform="matrix(0.04938271604938268,0,0,0.04938271604938268,37.48148148148145,0)" xlink:href="#m"/><use transform="matrix(0.04938271604938268,0,0,0.04938271604938268,41.38271604938269,0)" xlink:href="#n"/><use transform="matrix(0.04938271604938268,0,0,0.04938271604938268,45.28395061728392,0)" xlink:href="#j"/><use transform="matrix(0.04938271604938268,0,0,0.04938271604938268,55.160493827160465,0)" xlink:href="#o"/></g><path fill="#333" d="M135-143c-3-34-86-38-87 0 15 53 115 12 119 90S17 21 10-45l28-5c4 36 97 45 98 0-10-56-113-15-118-90-4-57 82-63 122-42 12 7 21 19 24 35" id="p"/><path fill="#333" d="M177-190C167-65 218 103 67 71c-23-6-38-20-44-43l32-5c15 47 100 32 89-28v-30C133-14 115 1 83 1 29 1 15-40 15-95c0-56 16-97 71-98 29-1 48 16 59 35 1-10 0-23 2-32h30zM94-22c36 0 50-32 50-73 0-42-14-75-50-75-39 0-46 34-46 75s6 73 46 73" id="q"/><path fill="#333" d="M117-194c89-4 53 116 60 194h-32v-121c0-31-8-49-39-48C34-167 62-67 57 0H25l-1-190h30c1 10-1 24 2 32 11-22 29-35 61-36" id="r"/><g id="b"><use transform="matrix(0.04938271604938268,0,0,0.04938271604938268,0,0)" xlink:href="#i"/><use transform="matrix(0.04938271604938268,0,0,0.04938271604938268,12.790123456790115,0)" xlink:href="#j"/><use transform="matrix(0.04938271604938268,0,0,0.04938271604938268,22.66666666666665,0)" xlink:href="#p"/><use transform="matrix(0.04938271604938268,0,0,0.04938271604938268,31.555555555555532,0)" xlink:href="#m"/><use transform="matrix(0.04938271604938268,0,0,0.04938271604938268,35.45679012345676,0)" xlink:href="#q"/><use transform="matrix(0.04938271604938268,0,0,0.04938271604938268,45.3333333333333,0)" xlink:href="#r"/></g><path fill="#333" d="M30-248c87 1 191-15 191 75 0 78-77 80-158 76V0H30v-248zm33 125c57 0 124 11 124-50 0-59-68-47-124-48v98" id="s"/><path fill="#333" d="M114-163C36-179 61-72 57 0H25l-1-190h30c1 12-1 29 2 39 6-27 23-49 58-41v29" id="t"/><path fill="#333" d="M100-194c62-1 85 37 85 99 1 63-27 99-86 99S16-35 15-95c0-66 28-99 85-99zM99-20c44 1 53-31 53-75 0-43-8-75-51-75s-53 32-53 75 10 74 51 75" id="u"/><path fill="#333" d="M84 4C-5 8 30-112 23-190h32v120c0 31 7 50 39 49 72-2 45-101 50-169h31l1 190h-30c-1-10 1-25-2-33-11 22-28 36-60 37" id="v"/><path fill="#333" d="M96-169c-40 0-48 33-48 73s9 75 48 75c24 0 41-14 43-38l32 2c-6 37-31 61-74 61-59 0-76-41-82-99-10-93 101-131 147-64 4 7 5 14 7 22l-32 3c-4-21-16-35-41-35" id="w"/><g id="c"><use transform="matrix(0.04938271604938268,0,0,0.04938271604938268,0,0)" xlink:href="#s"/><use transform="matrix(0.04938271604938268,0,0,0.04938271604938268,11.851851851851842,0)" xlink:href="#t"/><use transform="matrix(0.04938271604938268,0,0,0.04938271604938268,17.72839506172838,0)" xlink:href="#u"/><use transform="matrix(0.04938271604938268,0,0,0.04938271604938268,27.60493827160492,0)" xlink:href="#o"/><use transform="matrix(0.04938271604938268,0,0,0.04938271604938268,37.48148148148145,0)" xlink:href="#v"/><use transform="matrix(0.04938271604938268,0,0,0.04938271604938268,47.35802469135799,0)" xlink:href="#w"/><use transform="matrix(0.04938271604938268,0,0,0.04938271604938268,56.24691358024687,0)" xlink:href="#k"/><use transform="matrix(0.04938271604938268,0,0,0.04938271604938268,61.18518518518514,0)" xlink:href="#m"/><use transform="matrix(0.04938271604938268,0,0,0.04938271604938268,65.08641975308636,0)" xlink:href="#u"/><use transform="matrix(0.04938271604938268,0,0,0.04938271604938268,74.96296296296289,0)" xlink:href="#r"/></g><g id="d"><use transform="matrix(0.04938271604938268,0,0,0.04938271604938268,0,0)" xlink:href="#s"/><use transform="matrix(0.04938271604938268,0,0,0.04938271604938268,11.851851851851842,0)" xlink:href="#n"/><use transform="matrix(0.04938271604938268,0,0,0.04938271604938268,15.753086419753075,0)" xlink:href="#l"/><use transform="matrix(0.04938271604938268,0,0,0.04938271604938268,25.62962962962961,0)" xlink:href="#r"/><use transform="matrix(0.04938271604938268,0,0,0.04938271604938268,35.50617283950615,0)" xlink:href="#r"/><use transform="matrix(0.04938271604938268,0,0,0.04938271604938268,45.38271604938269,0)" xlink:href="#m"/><use transform="matrix(0.04938271604938268,0,0,0.04938271604938268,49.28395061728392,0)" xlink:href="#r"/><use transform="matrix(0.04938271604938268,0,0,0.04938271604938268,59.16049382716046,0)" xlink:href="#q"/></g><path fill="#333" d="M127-220V0H93v-220H8v-28h204v28h-85" id="x"/><g id="e"><use transform="matrix(0.04938271604938268,0,0,0.04938271604938268,0,0)" xlink:href="#x"/><use transform="matrix(0.04938271604938268,0,0,0.04938271604938268,8.8395061728395,0)" xlink:href="#j"/><use transform="matrix(0.04938271604938268,0,0,0.04938271604938268,18.716049382716037,0)" xlink:href="#p"/><use transform="matrix(0.04938271604938268,0,0,0.04938271604938268,27.60493827160492,0)" xlink:href="#k"/><use transform="matrix(0.04938271604938268,0,0,0.04938271604938268,32.54320987654319,0)" xlink:href="#m"/><use transform="matrix(0.04938271604938268,0,0,0.04938271604938268,36.44444444444442,0)" xlink:href="#r"/><use transform="matrix(0.04938271604938268,0,0,0.04938271604938268,46.32098765432096,0)" xlink:href="#q"/></g><path fill="#333" d="M212-179c-10-28-35-45-73-45-59 0-87 40-87 99 0 60 29 101 89 101 43 0 62-24 78-52l27 14C228-24 195 4 139 4 59 4 22-46 18-125c-6-104 99-153 187-111 19 9 31 26 39 46" id="y"/><path fill="#333" d="M101-234c-31-9-42 10-38 44h38v23H63V0H32v-167H5v-23h27c-7-52 17-82 69-68v24" id="z"/><g id="f"><use transform="matrix(0.04938271604938268,0,0,0.04938271604938268,0,0)" xlink:href="#y"/><use transform="matrix(0.04938271604938268,0,0,0.04938271604938268,12.790123456790115,0)" xlink:href="#j"/><use transform="matrix(0.04938271604938268,0,0,0.04938271604938268,22.66666666666665,0)" xlink:href="#t"/><use transform="matrix(0.04938271604938268,0,0,0.04938271604938268,28.543209876543187,0)" xlink:href="#k"/><use transform="matrix(0.04938271604938268,0,0,0.04938271604938268,33.48148148148145,0)" xlink:href="#m"/><use transform="matrix(0.04938271604938268,0,0,0.04938271604938268,37.38271604938269,0)" xlink:href="#z"/><use transform="matrix(0.04938271604938268,0,0,0.04938271604938268,42.32098765432095,0)" xlink:href="#m"/><use transform="matrix(0.04938271604938268,0,0,0.04938271604938268,46.222222222222186,0)" xlink:href="#w"/><use transform="matrix(0.04938271604938268,0,0,0.04938271604938268,55.11111111111107,0)" xlink:href="#l"/><use transform="matrix(0.04938271604938268,0,0,0.04938271604938268,64.9876543209876,0)" xlink:href="#k"/><use transform="matrix(0.04938271604938268,0,0,0.04938271604938268,69.92592592592587,0)" xlink:href="#m"/><use transform="matrix(0.04938271604938268,0,0,0.04938271604938268,73.8271604938271,0)" xlink:href="#u"/><use transform="matrix(0.04938271604938268,0,0,0.04938271604938268,83.70370370370362,0)" xlink:href="#r"/></g><path fill="#333" d="M190 0L58-211 59 0H30v-248h39L202-35l-2-213h31V0h-41" id="A"/><path fill="#333" d="M206 0h-36l-40-164L89 0H53L-1-190h32L70-26l43-164h34l41 164 42-164h31" id="B"/><g id="g"><use transform="matrix(0.04938271604938268,0,0,0.04938271604938268,0,0)" xlink:href="#A"/><use transform="matrix(0.04938271604938268,0,0,0.04938271604938268,12.790123456790115,0)" xlink:href="#u"/><use transform="matrix(0.04938271604938268,0,0,0.04938271604938268,22.66666666666665,0)" xlink:href="#B"/></g><path fill="#333" d="M185-189c-5-48-123-54-124 2 14 75 158 14 163 119 3 78-121 87-175 55-17-10-28-26-33-46l33-7c5 56 141 63 141-1 0-78-155-14-162-118-5-82 145-84 179-34 5 7 8 16 11 25" id="C"/><path fill="#333" d="M108 0H70L1-190h34L89-25l56-165h34" id="D"/><g id="h"><use transform="matrix(0.04938271604938268,0,0,0.04938271604938268,0,0)" xlink:href="#C"/><use transform="matrix(0.04938271604938268,0,0,0.04938271604938268,11.851851851851842,0)" xlink:href="#j"/><use transform="matrix(0.04938271604938268,0,0,0.04938271604938268,21.728395061728378,0)" xlink:href="#t"/><use transform="matrix(0.04938271604938268,0,0,0.04938271604938268,27.60493827160492,0)" xlink:href="#D"/><use transform="matrix(0.04938271604938268,0,0,0.04938271604938268,36.493827160493794,0)" xlink:href="#m"/><use transform="matrix(0.04938271604938268,0,0,0.04938271604938268,40.39506172839503,0)" xlink:href="#w"/><use transform="matrix(0.04938271604938268,0,0,0.04938271604938268,49.28395061728391,0)" xlink:href="#j"/></g></defs></g></svg>